REM DIRINDEX 1\2,1\3
REM DIRNAME folder01,folder02,folder03
TITLE ""
FILE "CD1Track04.mp3" MP3
  TRACK 01 AUDIO
    TITLE "0:"
    INDEX 01 00:00:00
  TRACK 02 AUDIO
    TITLE "2:cjc102_0107"
    INDEX 01 00:00:25
  TRACK 03 AUDIO
    TITLE "0:"
    INDEX 01 00:01:22
  TRACK 04 AUDIO
    TITLE "3:cjc102_0108"
    INDEX 01 00:01:24
  TRACK 05 AUDIO
    TITLE "0:"
    INDEX 01 00:02:57
  TRACK 06 AUDIO
    TITLE "3:cjc102_0109"
    INDEX 01 00:03:15
  TRACK 07 AUDIO
    TITLE "0:"
    INDEX 01 00:09:06
  TRACK 08 AUDIO
    TITLE "2:cjc102_0110"
    INDEX 01 00:09:10
  TRACK 09 AUDIO
    TITLE "0:"
    INDEX 01 00:10:31
  TRACK 10 AUDIO
    TITLE "3:cjc102_0111"
    INDEX 01 00:11:68
  TRACK 11 AUDIO
    TITLE "0:"
    INDEX 01 00:12:63
  TRACK 12 AUDIO
    TITLE "2:cjc102_0112"
    INDEX 01 00:13:32
  TRACK 13 AUDIO
    TITLE "0:"
    INDEX 01 00:14:37
  TRACK 14 AUDIO
    TITLE "3:cjc102_0113"
    INDEX 01 00:15:46
  TRACK 15 AUDIO
    TITLE "0:"
    INDEX 01 00:16:28
  TRACK 16 AUDIO
    TITLE "2:cjc102_0114"
    INDEX 01 00:16:65
  TRACK 17 AUDIO
    TITLE "0:"
    INDEX 01 00:17:72
  TRACK 18 AUDIO
    TITLE "3:cjc102_0115"
    INDEX 01 00:19:07
  TRACK 19 AUDIO
    TITLE "0:"
    INDEX 01 00:20:06
  TRACK 20 AUDIO
    TITLE "2:cjc102_0116"
    INDEX 01 00:20:41
  TRACK 21 AUDIO
    TITLE "0:"
    INDEX 01 00:21:49
  TRACK 22 AUDIO
    TITLE "3:cjc102_0117"
    INDEX 01 00:22:46
  TRACK 23 AUDIO
    TITLE "0:"
    INDEX 01 00:23:40
  TRACK 24 AUDIO
    TITLE "2:cjc102_0118"
    INDEX 01 00:24:04
  TRACK 25 AUDIO
    TITLE "0:"
    INDEX 01 00:24:72
  TRACK 26 AUDIO
    TITLE "3:cjc102_0119"
    INDEX 01 00:26:05
  TRACK 27 AUDIO
    TITLE "0:"
    INDEX 01 00:26:66
  TRACK 28 AUDIO
    TITLE "2:cjc102_0120"
    INDEX 01 00:27:30
  TRACK 29 AUDIO
    TITLE "0:"
    INDEX 01 00:28:43
  TRACK 30 AUDIO
    TITLE "3:cjc102_0121"
    INDEX 01 00:29:48
  TRACK 31 AUDIO
    TITLE "0:"
    INDEX 01 00:30:42
  TRACK 32 AUDIO
    TITLE "2:cjc102_0122"
    INDEX 01 00:31:08
  TRACK 33 AUDIO
    TITLE "0:"
    INDEX 01 00:32:19
  TRACK 34 AUDIO
    TITLE "3:cjc102_0123"
    INDEX 01 00:33:17
  TRACK 35 AUDIO
    TITLE "0:"
    INDEX 01 00:34:08
  TRACK 36 AUDIO
    TITLE "2:cjc102_0124"
    INDEX 01 00:34:73
  TRACK 37 AUDIO
    TITLE "0:"
    INDEX 01 00:36:09
  TRACK 38 AUDIO
    TITLE "3:cjc102_0125"
    INDEX 01 00:36:68
  TRACK 39 AUDIO
    TITLE "0:"
    INDEX 01 00:37:65
  TRACK 40 AUDIO
    TITLE "2:cjc102_0126"
    INDEX 01 00:38:47
  TRACK 41 AUDIO
    TITLE "0:"
    INDEX 01 00:39:43
  TRACK 42 AUDIO
    TITLE "3:cjc102_0127"
    INDEX 01 00:40:38
  TRACK 43 AUDIO
    TITLE "0:"
    INDEX 01 00:41:30
  TRACK 44 AUDIO
    TITLE "2:cjc102_0128"
    INDEX 01 00:42:00
  TRACK 45 AUDIO
    TITLE "0:"
    INDEX 01 00:43:13
  TRACK 46 AUDIO
    TITLE "3:cjc102_0129"
    INDEX 01 00:44:24
  TRACK 47 AUDIO
    TITLE "0:"
    INDEX 01 00:45:18
  TRACK 48 AUDIO
    TITLE "2:cjc102_0130"
    INDEX 01 00:45:53
  TRACK 49 AUDIO
    TITLE "0:"
    INDEX 01 00:46:62
  TRACK 50 AUDIO
    TITLE "3:cjc102_0131"
    INDEX 01 00:47:64
  TRACK 51 AUDIO
    TITLE "0:"
    INDEX 01 00:49:06
  TRACK 52 AUDIO
    TITLE "2:cjc102_0132"
    INDEX 01 00:49:37
  TRACK 53 AUDIO
    TITLE "0:"
    INDEX 01 00:50:52
  TRACK 54 AUDIO
    TITLE "3:cjc102_0133"
    INDEX 01 00:51:42
  TRACK 55 AUDIO
    TITLE "0:"
    INDEX 01 00:52:49
  TRACK 56 AUDIO
    TITLE "2:cjc102_0134"
    INDEX 01 00:53:08
  TRACK 57 AUDIO
    TITLE "0:"
    INDEX 01 00:54:13
  TRACK 58 AUDIO
    TITLE "3:cjc102_0135"
    INDEX 01 00:55:32
  TRACK 59 AUDIO
    TITLE "0:"
    INDEX 01 00:56:49
  TRACK 60 AUDIO
    TITLE "2:cjc102_0136"
    INDEX 01 00:57:07
  TRACK 61 AUDIO
    TITLE "0:"
    INDEX 01 00:58:20
  TRACK 62 AUDIO
    TITLE "3:cjc102_0137"
    INDEX 01 00:59:16
  TRACK 63 AUDIO
    TITLE "0:"
    INDEX 01 01:00:27
  TRACK 64 AUDIO
    TITLE "2:cjc102_0138"
    INDEX 01 01:00:57
  TRACK 65 AUDIO
    TITLE "0:"
    INDEX 01 01:01:64
  TRACK 66 AUDIO
    TITLE "3:cjc102_0139"
    INDEX 01 01:02:69
  TRACK 67 AUDIO
    TITLE "0:"
    INDEX 01 01:03:73
  TRACK 68 AUDIO
    TITLE "2:cjc102_0140"
    INDEX 01 01:04:31
  TRACK 69 AUDIO
    TITLE "0:"
    INDEX 01 01:05:46
  TRACK 70 AUDIO
    TITLE "3:cjc102_0141"
    INDEX 01 01:06:71
  TRACK 71 AUDIO
    TITLE "0:"
    INDEX 01 01:08:01
  TRACK 72 AUDIO
    TITLE "2:cjc102_0142"
    INDEX 01 01:08:29
  TRACK 73 AUDIO
    TITLE "0:"
    INDEX 01 01:09:67
  TRACK 74 AUDIO
    TITLE "3:cjc102_0143"
    INDEX 01 01:11:03
  TRACK 75 AUDIO
    TITLE "0:"
    INDEX 01 01:12:15
  TRACK 76 AUDIO
    TITLE "2:cjc102_0144"
    INDEX 01 01:13:00
  TRACK 77 AUDIO
    TITLE "0:"
    INDEX 01 01:14:04
  TRACK 78 AUDIO
    TITLE "3:cjc102_0145"
    INDEX 01 01:15:07
  TRACK 79 AUDIO
    TITLE "0:"
    INDEX 01 01:16:24
  TRACK 80 AUDIO
    TITLE "2:cjc102_0146"
    INDEX 01 01:17:08
  TRACK 81 AUDIO
    TITLE "0:"
    INDEX 01 01:18:27
  TRACK 82 AUDIO
    TITLE "3:cjc102_0147"
    INDEX 01 01:19:62
  TRACK 83 AUDIO
    TITLE "0:"
    INDEX 01 01:21:06
  TRACK 84 AUDIO
    TITLE "2:cjc102_0148"
    INDEX 01 01:21:65
  TRACK 85 AUDIO
    TITLE "0:"
    INDEX 01 01:22:72
  TRACK 86 AUDIO
    TITLE "2:cjc102_0149"
    INDEX 01 01:23:52
  TRACK 87 AUDIO
    TITLE "0:"
    INDEX 01 01:24:67
  TRACK 88 AUDIO
    TITLE "3:cjc102_0150"
    INDEX 01 01:26:29
  TRACK 89 AUDIO
    TITLE "0:"
    INDEX 01 01:27:34
  TRACK 90 AUDIO
    TITLE "2:cjc102_0151"
    INDEX 01 01:28:10
  TRACK 91 AUDIO
    TITLE "0:"
    INDEX 01 01:29:05
  TRACK 92 AUDIO
    TITLE "2:cjc102_0152"
    INDEX 01 01:29:58
  TRACK 93 AUDIO
    TITLE "0:"
    INDEX 01 01:30:64
  TRACK 94 AUDIO
    TITLE "3:cjc102_0153"
    INDEX 01 01:32:12
  TRACK 95 AUDIO
    TITLE "0:"
    INDEX 01 01:33:40
  TRACK 96 AUDIO
    TITLE "2:cjc102_0154"
    INDEX 01 01:34:01
  TRACK 97 AUDIO
    TITLE "0:"
    INDEX 01 01:35:10
  TRACK 98 AUDIO
    TITLE "2:cjc102_0155"
    INDEX 01 01:35:69
  TRACK 99 AUDIO
    TITLE "0:"
    INDEX 01 01:37:07
  TRACK 100 AUDIO
    TITLE "3:cjc102_0156"
    INDEX 01 01:38:22
  TRACK 101 AUDIO
    TITLE "0:"
    INDEX 01 01:39:39
  TRACK 102 AUDIO
    TITLE "2:cjc102_0157"
    INDEX 01 01:40:03
  TRACK 103 AUDIO
    TITLE "0:"
    INDEX 01 01:41:03
  TRACK 104 AUDIO
    TITLE "2:cjc102_0158"
    INDEX 01 01:41:50
  TRACK 105 AUDIO
    TITLE "0:"
    INDEX 01 01:42:57
  TRACK 106 AUDIO
    TITLE "3:cjc102_0159"
    INDEX 01 01:43:70
  TRACK 107 AUDIO
    TITLE "0:"
    INDEX 01 01:45:22
  TRACK 108 AUDIO
    TITLE "2:cjc102_0160"
    INDEX 01 01:45:49
  TRACK 109 AUDIO
    TITLE "0:"
    INDEX 01 01:46:55
  TRACK 110 AUDIO
    TITLE "2:cjc102_0161"
    INDEX 01 01:47:25
  TRACK 111 AUDIO
    TITLE "0:"
    INDEX 01 01:48:36
  TRACK 112 AUDIO
    TITLE "3:cjc102_0162"
    INDEX 01 01:49:69
  TRACK 113 AUDIO
    TITLE "0:"
    INDEX 01 01:51:21
  TRACK 114 AUDIO
    TITLE "2:cjc102_0163"
    INDEX 01 01:51:62
  TRACK 115 AUDIO
    TITLE "0:"
    INDEX 01 01:54:25
  TRACK 116 AUDIO
    TITLE "3:cjc102_0164"
    INDEX 01 01:55:56
  TRACK 117 AUDIO
    TITLE "0:"
    INDEX 01 01:56:69
  TRACK 118 AUDIO
    TITLE "2:cjc102_0165"
    INDEX 01 01:57:33
  TRACK 119 AUDIO
    TITLE "0:"
    INDEX 01 02:00:49
  TRACK 120 AUDIO
    TITLE "3:cjc102_0166"
    INDEX 01 02:01:68
  TRACK 121 AUDIO
    TITLE "0:"
    INDEX 01 02:03:10
  TRACK 122 AUDIO
    TITLE "2:cjc102_0167"
    INDEX 01 02:03:65
  TRACK 123 AUDIO
    TITLE "0:"
    INDEX 01 02:07:55
